# xmcd
#
# Track frame offsets: 
#        150
#        10310
#        21110
#        34462
#        45922
#        56885
#        66847
#        79297
#        91490
#        102125
#        115810
#        131995
#        147235
#        162147
#        174105
#        188495
#        201922
#        215007
#        228820
#        238537
#        255040
#        273272
#
# Disc length: 3877 seconds
#
# Revision: 1
# Processed by: cddbd v1.5PL3 Copyright (c) Steve Scherf et al.
# Submitted via: ExactAudioCopy v0.95a3
#
DISCID=270f2316
DTITLE=The Kinks - Rock Masterpiece Collection -The Kinks Best-
DYEAR=1997
DGENRE=Rock
TTITLE0=You Really Got Me
TTITLE1=All Day And All Of The Night
TTITLE2=Louie Louie
TTITLE3=Tired Of Waiting For You
TTITLE4=Something Better Beginning
TTITLE5=Set Me Free
TTITLE6=See My Friend
TTITLE7=A Well Respected Man
TTITLE8=Till The End Of The Day
TTITLE9=Dedicated Follower Of Fashion
TTITLE10=Sunny Afternoon
TTITLE11=Dead End Street
TTITLE12=Waterloo Sunset
TTITLE13=David Watts
TTITLE14=Autumn Almanac
TTITLE15=Mr. Pleasant
TTITLE16=Days
TTITLE17=Plastic Man
TTITLE18=Village GReen
TTITLE19=Victoria
TTITLE20=Lola
TTITLE21=Apeman
EXTD=YEAR: 1997
EXTT0=
EXTT1=
EXTT2=
EXTT3=
EXTT4=
EXTT5=
EXTT6=
EXTT7=
EXTT8=
EXTT9=
EXTT10=
EXTT11=
EXTT12=
EXTT13=
EXTT14=
EXTT15=
EXTT16=
EXTT17=
EXTT18=
EXTT19=
EXTT20=
EXTT21=
PLAYORDER=
